<?xml version="1.0" standalone="no"?>
<!DOCTYPE svg PUBLIC "-//W3C//DTD SVG 20010904//EN"
 "http://www.w3.org/TR/2001/REC-SVG-20010904/DTD/svg10.dtd">
<svg version="1.0" xmlns="http://www.w3.org/2000/svg"
 width="491.000000pt" height="491.000000pt" viewBox="0 0 491.000000 491.000000"
 preserveAspectRatio="xMidYMid meet">
<metadata>
Created by potrace 1.11, written by Peter Selinger 2001-2013
</metadata>
<g transform="translate(0.000000,491.000000) scale(0.100000,-0.100000)"
fill="#000000" stroke="none">
<path d="M2760 4088 c-56 -47 -227 -126 -334 -153 -137 -35 -274 -35 -383 0
-43 14 -89 25 -102 25 -13 0 -100 -20 -195 -45 -94 -25 -253 -65 -354 -89
-101 -25 -198 -54 -217 -66 -19 -12 -59 -54 -90 -95 -44 -59 -62 -75 -88 -80
-219 -38 -323 -61 -414 -93 -89 -32 -126 -40 -211 -45 -57 -3 -105 -7 -107 -9
-2 -1 1 -27 6 -57 6 -38 19 -67 47 -105 22 -28 47 -74 56 -102 12 -37 31 -64
64 -96 27 -24 58 -65 71 -90 17 -35 32 -52 62 -65 26 -12 41 -27 46 -43 23
-92 77 -145 172 -170 39 -10 71 -16 71 -14 0 3 -7 19 -16 36 -13 25 -44 113
-44 127 0 3 10 -5 22 -16 29 -26 58 -41 113 -57 l44 -14 7 41 c8 48 30 87 50
87 7 0 34 -18 59 -40 25 -22 50 -40 55 -40 5 0 17 26 26 58 10 31 21 60 24 65
4 4 26 -13 51 -38 54 -55 86 -59 123 -14 15 17 34 45 43 62 l16 31 36 -42 c20
-23 44 -42 53 -42 22 0 65 53 73 90 4 16 10 30 14 30 15 0 70 -66 76 -92 6
-22 1 -33 -24 -59 -29 -29 -36 -31 -74 -25 -85 15 -82 16 -85 -41 -4 -62 -21
-69 -70 -28 l-29 24 -20 -37 c-12 -20 -24 -56 -28 -79 -6 -40 -8 -43 -33 -37
-15 3 -48 17 -75 30 -50 26 -49 26 -61 -28 -3 -15 -11 -39 -16 -53 l-10 -27
-32 27 -32 27 -38 -43 c-43 -50 -35 -52 -148 29 l-60 43 0 -75 c0 -96 10 -122
67 -172 43 -39 47 -46 54 -104 9 -74 20 -88 167 -202 78 -61 102 -85 102 -103
0 -41 18 -37 34 7 12 33 14 55 8 95 -5 29 -7 55 -4 58 16 15 96 3 130 -20 20
-14 38 -21 40 -15 2 5 -8 35 -22 66 -15 32 -24 65 -20 76 9 29 100 96 147 109
96 26 231 -20 323 -108 85 -82 102 -121 135 -311 16 -92 29 -169 29 -172 0 -3
23 31 51 75 28 44 54 84 58 88 5 4 33 -34 63 -85 l56 -93 3 -137 c3 -86 8
-137 14 -135 5 2 30 48 55 103 25 54 49 101 55 104 17 9 102 -116 126 -187 19
-55 24 -89 24 -178 0 -60 -3 -130 -8 -155 l-7 -45 20 25 c11 14 41 61 66 105
26 44 48 82 50 84 9 10 54 -44 82 -97 39 -73 59 -142 66 -228 4 -38 9 -93 12
-123 l6 -54 55 102 55 103 40 -39 c73 -71 118 -204 118 -350 0 -46 3 -83 8
-83 4 0 31 42 60 93 84 148 128 322 116 457 l-7 70 89 -5 c154 -10 190 -16
228 -36 20 -10 38 -19 41 -19 2 0 -4 20 -15 45 -10 24 -22 80 -25 122 -3 43
-8 99 -11 124 l-4 47 87 -44 c164 -83 374 -114 543 -80 231 46 462 223 562
431 48 101 68 193 68 323 0 126 -20 232 -65 336 l-34 79 54 59 c62 67 68 82
28 71 -16 -4 -60 -7 -100 -7 l-71 -1 -69 66 c-37 36 -79 73 -92 82 -14 9 -23
18 -20 20 2 2 22 14 44 27 45 27 115 82 115 91 0 3 -24 2 -52 -3 -82 -13 -191
6 -377 66 l-74 24 84 54 c85 56 132 97 151 132 9 16 8 18 -6 13 -105 -41 -290
-54 -386 -28 -65 17 -220 74 -220 81 0 3 30 21 68 39 92 45 212 120 212 133 0
5 -7 8 -15 4 -47 -18 -196 -38 -245 -32 -48 5 -315 78 -326 89 -2 2 26 24 63
48 65 43 133 113 120 125 -3 3 -34 -4 -69 -16 -47 -17 -94 -24 -183 -27 -106
-5 -133 -2 -233 22 -127 30 -126 27 -37 95 48 37 132 136 123 145 -2 2 -30 -6
-63 -16 -158 -50 -385 -74 -492 -53 l-30 6 54 86 c64 102 105 180 101 192 -2
4 -19 -5 -38 -22z m-706 -200 c88 -32 97 -33 246 -33 144 0 161 2 234 28 43
15 81 25 84 23 9 -10 -29 -56 -69 -83 -25 -17 -36 -30 -30 -36 10 -10 499 -4
541 8 53 14 -43 -54 -115 -82 -38 -15 -72 -28 -74 -30 -22 -16 177 -60 359
-79 85 -9 156 -17 158 -19 3 -3 -107 -42 -227 -80 l-73 -23 -46 41 c-27 25
-43 34 -39 24 4 -10 7 -22 7 -27 0 -5 9 -11 20 -15 19 -6 107 -172 97 -182 -3
-2 -49 -13 -103 -25 -95 -19 -178 -20 -242 -2 l-22 6 25 -53 c22 -47 25 -68
25 -163 l0 -108 -123 4 c-112 3 -127 6 -169 31 -26 15 -49 27 -53 27 -3 0 2
-15 11 -32 12 -23 20 -71 24 -153 4 -66 12 -132 18 -147 11 -26 10 -28 -12
-28 -32 0 -265 49 -285 60 -9 4 -25 18 -35 29 -11 12 -23 21 -28 21 -17 0 -6
-57 22 -110 27 -49 30 -65 30 -145 1 -49 5 -109 9 -132 5 -24 5 -43 0 -43 -24
0 -154 32 -202 50 -59 22 -104 64 -126 118 -16 39 -34 42 -25 5 17 -69 61
-118 153 -169 46 -26 53 -35 66 -79 17 -58 19 -91 16 -200 -2 -95 -1 -96 -89
64 -74 135 -124 191 -212 235 -141 70 -240 70 -335 -2 -42 -32 -54 -48 -73
-104 -23 -65 -24 -66 -66 -71 -55 -8 -85 0 -118 31 -33 30 -33 29 -12 -50 8
-33 13 -62 11 -64 -5 -5 -76 33 -112 61 -23 17 -37 44 -59 109 -16 47 -27 88
-25 90 2 3 58 33 125 69 223 119 413 247 523 351 l53 51 -7 -40 c-3 -22 -9
-51 -11 -65 -3 -14 13 8 36 48 23 39 45 72 50 72 18 0 49 -54 61 -106 7 -30
15 -54 18 -54 3 0 12 19 19 42 13 40 12 42 -25 96 -43 63 -241 264 -293 298
-22 14 -75 30 -145 43 -125 24 -138 25 -111 9 16 -9 9 -14 -51 -33 -39 -12
-111 -44 -159 -70 -266 -145 -345 -173 -439 -158 -73 11 -135 59 -135 104 0
10 -22 44 -50 74 -27 30 -53 67 -56 82 -4 16 -11 33 -15 39 -11 13 -70 156
-67 159 9 8 140 15 136 8 -27 -59 -31 -62 -58 -56 -31 6 -52 -15 -28 -28 10
-5 14 -18 10 -34 -4 -22 -1 -25 22 -25 19 0 32 10 50 39 33 51 100 108 161
137 110 50 298 57 440 14 74 -23 305 -130 305 -142 0 -3 -8 -8 -17 -10 -10 -2
20 -11 66 -20 136 -27 311 -121 410 -219 46 -46 75 -99 86 -161 4 -20 18 -47
32 -60 l26 -23 -6 30 c-11 60 -81 208 -112 239 -17 17 -101 71 -186 120 -85
49 -167 97 -183 106 l-30 18 40 17 c21 9 73 50 115 91 65 65 84 77 130 89 43
10 48 13 24 14 -288 14 -537 30 -541 34 -10 9 15 73 35 91 32 29 119 41 230
30 55 -5 101 -7 101 -4 0 3 -32 20 -72 37 -40 17 -74 35 -75 40 -9 25 76 42
315 63 136 13 178 27 72 26 -100 -1 -94 18 12 42 51 11 99 21 107 21 7 1 55
-14 105 -31z m-870 -233 c-12 -19 -15 -37 -11 -70 6 -42 5 -46 -23 -60 -42
-22 -37 -35 8 -19 54 19 57 18 75 -26 8 -22 14 -40 12 -40 -1 0 -22 7 -46 16
-24 9 -100 31 -169 49 l-125 33 80 1 80 1 63 70 c66 73 84 87 56 45z m319
-124 l21 -8 -20 -11 c-12 -6 -53 -20 -91 -31 -39 -10 -81 -25 -94 -31 -20 -11
-25 -10 -41 10 -23 28 -23 66 0 80 18 12 187 5 225 -9z m88 -63 c-86 -79 -125
-101 -181 -102 -34 -1 -54 5 -69 18 -12 11 -21 22 -21 26 0 9 125 66 175 79
43 11 123 28 140 30 6 0 -14 -23 -44 -51z m1803 -7 c3 -5 45 -24 93 -44 82
-32 130 -45 228 -63 36 -6 27 -9 -90 -30 -176 -31 -171 -31 -186 14 -7 20 -22
53 -34 72 -36 58 -37 60 -26 60 5 0 12 -4 15 -9z m-74 -27 c17 -15 40 -45 52
-68 20 -38 68 -171 68 -187 0 -23 -149 -43 -219 -28 -48 10 -63 19 -103 63
l-48 51 78 8 c42 5 79 10 80 12 2 2 -19 39 -47 82 l-50 78 42 6 c90 13 114 10
147 -17z m-279 -201 c44 -26 70 -91 86 -215 8 -61 12 -113 9 -116 -3 -3 -55 0
-116 6 -104 11 -152 24 -148 40 1 4 -2 66 -6 137 -4 72 -8 135 -7 140 1 25
142 31 182 8z m619 -9 c17 -10 38 -30 45 -44 17 -30 96 -232 93 -234 -4 -3
-86 -24 -140 -38 -69 -17 -92 -3 -112 66 -13 44 -26 63 -69 100 -49 43 -50 46
-26 46 15 0 40 3 57 6 l31 6 -30 61 -31 60 75 -5 c49 -3 86 -12 107 -24z m225
-58 c50 -13 136 -32 192 -42 57 -9 100 -21 97 -26 -4 -5 -27 -19 -53 -30 -49
-21 -280 -53 -292 -40 -7 6 -69 161 -69 170 0 2 8 1 18 -2 9 -3 58 -16 107
-30z m-2431 -19 l29 -13 -25 -16 c-14 -9 -31 -30 -38 -47 -8 -22 -18 -30 -29
-27 -67 20 -90 18 -144 -13 -30 -17 -69 -31 -87 -31 -18 0 -47 -8 -64 -19 -35
-21 -166 -39 -166 -22 0 6 19 15 43 21 23 6 78 33 122 60 183 109 283 139 359
107z m1848 -58 c47 2 78 -3 102 -14 43 -20 89 -87 105 -152 7 -26 18 -67 26
-91 11 -39 11 -44 -6 -52 -45 -25 -199 0 -267 42 -43 27 -67 80 -81 181 -15
105 -16 100 22 91 17 -5 62 -7 99 -5z m-1737 -29 c9 -41 -11 -100 -35 -100
-25 0 -80 54 -80 78 0 27 37 52 76 52 28 0 33 -4 39 -30z m-192 -56 c5 -5 -30
-77 -50 -103 -4 -6 -32 19 -54 50 -17 25 -18 29 -3 43 15 16 94 23 107 10z
m2554 -36 l58 -22 -45 -7 c-37 -5 -47 -3 -62 15 -17 20 -23 36 -13 36 2 0 30
-10 62 -22z m148 -2 l50 -24 -33 -1 c-33 -1 -92 26 -92 41 0 14 23 9 75 -16z
m-2920 -17 c7 -10 -12 -69 -22 -69 -2 0 -13 5 -24 10 -25 14 -24 35 3 54 26
19 35 20 43 5z m1591 -14 c54 -16 96 -53 114 -100 6 -16 15 -73 20 -125 4 -52
11 -104 15 -114 7 -16 5 -18 -11 -12 -10 5 -66 13 -124 18 -158 14 -150 6
-177 178 -13 79 -21 150 -18 157 6 18 119 17 181 -2z m-1818 -11 c19 -6 22
-13 22 -61 0 -55 0 -55 -27 -48 -53 13 -110 85 -86 108 8 9 60 9 91 1z m3556
-44 c4 -5 -6 -16 -23 -25 -31 -15 -34 -15 -94 15 l-62 30 85 -6 c47 -4 89 -10
94 -14z m-3728 -27 c4 -21 13 -56 21 -77 7 -22 11 -41 9 -43 -2 -3 -17 2 -33
10 -31 16 -44 37 -67 105 l-15 42 39 0 c37 0 39 -2 46 -37z m2390 -15 c51 -20
62 -29 82 -68 16 -31 22 -62 22 -105 0 -34 5 -87 11 -119 7 -31 9 -59 6 -62
-7 -7 -179 23 -210 37 -14 6 -45 47 -75 99 -45 76 -52 96 -52 142 0 29 -6 65
-14 80 -8 15 -12 28 -11 30 12 12 190 -14 241 -34z m487 12 c7 0 4 -5 -6 -11
-18 -11 -37 -5 -37 13 0 5 7 7 16 4 9 -3 21 -6 27 -6z m367 -711 l0 -710 -27
3 -28 3 -3 699 c-2 735 -3 715 41 716 16 0 17 -40 17 -711z m124 705 c14 -6
16 -78 16 -715 l0 -709 -30 0 -30 0 0 715 c0 760 -2 727 44 709z m-224 -705
l0 -691 -27 6 c-125 29 -282 164 -346 296 -20 41 -44 102 -52 135 -37 141 -37
369 0 510 37 143 135 284 246 355 45 29 153 79 172 80 4 0 7 -311 7 -691z
m-2316 675 c32 -12 5 -64 -35 -64 -20 0 -36 40 -24 59 7 12 35 14 59 5z m2707
-31 c100 -49 213 -161 263 -260 68 -135 81 -203 81 -413 0 -208 -10 -260 -72
-389 -61 -129 -185 -232 -329 -276 l-44 -13 0 694 c0 580 2 694 14 694 7 0 47
-17 87 -37z m-2804 -70 c9 -22 -31 -53 -68 -53 -26 0 -29 3 -29 35 0 35 0 35
45 35 33 0 47 -5 52 -17z m1867 7 c17 -5 44 -12 60 -15 l29 -6 -25 -27 c-14
-15 -36 -44 -50 -65 l-25 -38 -21 81 c-21 85 -20 87 32 70z m-948 -80 c99 -20
155 -36 167 -48 11 -12 22 -45 28 -88 5 -38 14 -85 19 -104 6 -19 10 -46 10
-59 0 -20 -3 -22 -27 -16 -16 4 -78 10 -138 15 -135 9 -167 23 -189 82 -16 43
-37 248 -25 248 3 0 73 -14 155 -30z m-1109 -25 c29 -20 20 -41 -23 -55 -48
-16 -64 -8 -64 35 0 33 2 35 33 35 18 0 42 -7 54 -15z m3408 -16 c11 -17 -1
-21 -15 -4 -8 9 -8 15 -2 15 6 0 14 -5 17 -11z m-3725 -93 c30 -31 60 -56 67
-56 28 0 11 -20 -28 -31 -38 -12 -41 -11 -68 17 -22 23 -81 139 -81 160 0 11
57 -36 110 -90z m160 14 c6 -11 5 -21 -2 -28 -17 -17 -55 -15 -62 4 -8 20 -8
59 0 67 8 8 52 -21 64 -43z m1647 34 c105 -21 145 -44 167 -91 17 -38 57 -251
49 -265 -2 -3 -16 -3 -32 2 -16 4 -66 6 -110 3 l-81 -6 -40 42 c-57 60 -69 90
-85 209 -8 59 -15 110 -15 115 0 12 66 8 147 -9z m363 -116 c69 -17 126 -32
126 -32 1 -1 -4 -30 -12 -66 -7 -36 -16 -109 -20 -163 -6 -83 -9 -97 -23 -93
-9 2 -32 7 -52 10 -35 6 -76 40 -97 82 -6 12 -21 75 -32 140 -11 66 -23 127
-26 137 -7 22 -10 22 136 -15z m-908 -169 l27 -32 7 39 c9 54 11 55 47 35 18
-11 49 -22 70 -25 54 -10 69 -38 65 -122 -3 -68 -3 -69 -32 -72 -34 -4 -105
12 -159 35 -30 13 -46 32 -87 103 -28 48 -50 90 -50 93 0 16 88 -27 112 -54z
m373 -54 c56 -30 108 -62 116 -71 10 -12 15 -58 18 -157 l3 -140 -38 7 c-22 4
-66 9 -99 12 -98 8 -102 10 -159 86 -30 40 -53 74 -51 76 1 2 35 -10 74 -27
39 -16 73 -26 76 -22 2 5 -4 20 -16 35 -11 14 -22 40 -24 58 -9 71 -14 198 -8
198 3 0 52 -25 108 -55z m413 -107 c35 -17 53 -34 70 -68 26 -49 26 -101 1
-233 -17 -94 -15 -90 -43 -72 -13 9 -52 20 -86 26 -63 10 -140 42 -140 58 0 5
-9 76 -20 157 -11 82 -20 153 -20 158 0 5 42 6 96 3 71 -4 107 -11 142 -29z
m-759 -38 c36 -13 46 -22 58 -55 32 -88 34 -114 17 -202 -9 -46 -20 -80 -25
-76 -4 4 -41 74 -83 155 -58 112 -76 157 -76 188 l0 41 33 -18 c17 -10 52 -25
76 -33z m967 -40 c9 0 14 -11 14 -28 0 -80 60 -245 118 -321 l25 -34 -84 5
c-145 9 -180 43 -160 154 6 34 11 101 11 149 l0 88 31 -7 c17 -3 38 -6 45 -6z
m-661 -220 c32 0 35 -3 47 -42 14 -49 17 -248 5 -323 l-9 -50 -23 72 c-28 88
-83 192 -138 257 -34 41 -41 58 -45 103 l-5 54 68 -35 c38 -21 81 -36 100 -36z
m241 -60 c36 -31 42 -34 129 -50 130 -24 147 -44 153 -172 2 -48 1 -99 -2
-114 -7 -25 -10 -26 -48 -20 -67 11 -195 57 -243 87 -74 47 -93 86 -101 211
l-7 106 43 -9 c24 -6 58 -23 76 -39z m433 -150 c41 -11 92 -20 113 -20 120 0
181 -88 176 -252 l-3 -90 -95 5 c-58 3 -114 12 -145 24 -48 18 -51 22 -78 88
-16 39 -32 93 -37 120 -17 98 -21 145 -13 145 4 0 41 -9 82 -20z m-394 -213
l50 -14 3 -89 c2 -70 -2 -106 -21 -168 l-24 -80 -6 50 c-10 70 -35 139 -74
206 -28 47 -73 156 -73 175 0 3 21 -11 48 -30 26 -19 70 -42 97 -50z m235
-125 c41 -36 90 -78 109 -95 l34 -30 -5 -96 c-4 -75 -11 -111 -32 -161 -16
-36 -32 -69 -36 -74 -5 -5 -16 18 -26 50 -25 87 -55 142 -118 213 -47 51 -56
68 -52 90 3 14 10 61 17 103 8 52 15 75 23 71 6 -4 45 -36 86 -71z"/>
<path d="M2186 3786 c-6 -40 -13 -50 -51 -76 -46 -32 -125 -140 -125 -171 0
-14 19 1 66 51 81 85 117 108 188 120 89 14 164 -2 297 -66 l120 -57 90 8 c86
6 149 -4 149 -24 0 -9 -89 -75 -131 -96 -18 -9 -83 -68 -144 -129 -60 -62
-128 -120 -150 -131 -57 -27 -153 -31 -260 -10 -119 24 -156 17 -212 -40 -24
-23 -43 -47 -43 -52 0 -7 27 -8 70 -5 l69 5 7 -42 c4 -23 13 -49 21 -57 25
-25 133 -13 133 15 0 5 -20 12 -44 15 -47 7 -96 38 -96 60 0 17 118 28 210 20
103 -10 151 17 315 176 98 96 148 136 202 164 72 38 107 73 101 103 -5 28
-132 73 -203 73 -36 0 -69 6 -80 14 -18 13 -18 15 -2 40 20 30 25 27 -93 46
-36 6 -95 18 -132 26 -64 15 -128 15 -173 0 -17 -6 -24 -1 -35 26 -9 20 -23
34 -36 36 -19 3 -23 -3 -28 -42z"/>
<path d="M2336 3596 c-31 -41 -72 -72 -107 -81 -21 -5 -27 0 -47 39 -12 26
-25 46 -29 46 -5 0 -48 -34 -96 -75 -49 -41 -91 -75 -93 -75 -3 0 -3 13 1 30
l6 29 -68 -28 c-150 -63 -162 -70 -177 -100 -20 -38 -20 -85 -1 -101 8 -6 32
-14 55 -17 l40 -6 0 70 c0 61 3 72 28 99 27 31 82 61 82 45 0 -4 -16 -28 -34
-52 -19 -24 -34 -45 -32 -46 2 -2 19 4 39 12 20 8 48 15 63 15 15 0 62 22 106
50 43 28 81 50 83 50 3 0 0 -12 -5 -26 -20 -52 -11 -53 82 -3 51 27 94 49 96
49 2 0 -5 -16 -17 -35 -23 -39 -19 -41 30 -21 61 24 89 28 83 11 -5 -12 0 -14
22 -10 16 2 60 7 97 11 56 5 74 11 100 34 18 16 30 31 27 34 -3 3 -30 -1 -60
-9 -30 -8 -56 -15 -58 -15 -2 0 -1 9 2 20 3 11 9 30 12 41 6 20 3 20 -47 -9
-30 -17 -71 -33 -91 -37 l-38 -7 0 35 c0 39 -8 67 -20 67 -4 0 -19 -15 -34
-34z"/>
<path d="M2578 3431 c-21 -17 -30 -18 -65 -9 -49 12 -88 -5 -139 -60 l-33 -36
-59 12 c-118 24 -213 7 -273 -49 -18 -16 -30 -31 -28 -33 2 -2 42 9 89 25 l86
28 103 -16 102 -16 50 57 c56 62 78 68 106 31 l18 -25 40 23 c26 14 41 31 43
46 5 35 -11 44 -40 22z"/>
<path d="M748 3385 c-79 -30 -186 -123 -222 -193 -27 -52 -19 -48 57 30 41 44
95 88 127 104 54 28 58 29 203 28 81 -1 147 2 147 6 0 32 -245 51 -312 25z"/>
<path d="M1015 3307 c-100 -34 -153 -75 -239 -184 -59 -76 -83 -89 -140 -80
-32 5 -66 -6 -50 -16 5 -2 28 -8 51 -12 62 -10 112 18 228 125 129 120 160
134 292 135 57 0 103 3 103 7 0 30 -175 48 -245 25z"/>
<path d="M1720 2685 c-24 -26 -283 -179 -467 -276 -57 -30 -103 -57 -103 -60
0 -3 35 4 78 15 58 16 115 43 223 107 79 48 177 103 217 123 54 27 72 41 68
52 -3 8 1 26 10 40 21 31 4 31 -26 -1z"/>
<path d="M4874 2915 c35 -18 36 -18 36 0 0 10 -10 15 -32 15 l-33 0 29 -15z"/>
<path d="M4876 1355 c-19 -14 -19 -15 7 -15 17 0 27 5 27 15 0 19 -9 19 -34 0z"/>
</g>
</svg>
